<?xml version="1.0" standalone="no"?>
<!DOCTYPE svg PUBLIC "-//W3C//DTD SVG 20010904//EN"
 "http://www.w3.org/TR/2001/REC-SVG-20010904/DTD/svg10.dtd">
<svg version="1.0" xmlns="http://www.w3.org/2000/svg"
 width="800.000000pt" height="168.000000pt" viewBox="0 0 800.000000 168.000000"
 preserveAspectRatio="xMidYMid meet">

<g transform="translate(0.000000,168.000000) scale(0.100000,-0.100000)"
fill="#000000" stroke="none">
<path d="M1080 1351 c-14 -27 -14 -905 0 -932 9 -16 22 -19 93 -19 51 0 88 5
95 12 17 17 17 929 0 946 -7 7 -44 12 -95 12 -71 0 -84 -3 -93 -19z"/>
<path d="M5322 1359 c-113 -14 -185 -75 -218 -185 -8 -26 -14 -60 -14 -75 0
-26 -3 -28 -42 -31 l-43 -3 -3 -78 c-3 -91 5 -107 54 -107 l34 0 0 -229 c0
-184 3 -231 14 -240 9 -8 45 -11 98 -9 l83 3 3 238 2 237 54 0 c34 0 58 5 65
14 8 9 11 43 9 93 l-3 78 -63 3 c-64 3 -64 3 -58 30 8 34 50 72 80 72 37 0 46
19 46 102 0 93 -6 98 -98 87z"/>
<path d="M5852 1359 c-113 -14 -185 -75 -218 -185 -8 -26 -14 -60 -14 -75 0
-26 -3 -28 -42 -31 l-43 -3 -3 -78 c-3 -91 5 -107 54 -107 l34 0 0 -229 c0
-184 3 -231 14 -240 9 -8 45 -11 98 -9 l83 3 3 238 2 237 54 0 c34 0 58 5 65
14 8 9 11 43 9 93 l-3 78 -63 3 c-64 3 -64 3 -58 30 8 34 50 72 80 72 37 0 46
19 46 102 0 93 -6 98 -98 87z"/>
<path d="M4319 1341 c-234 -75 -377 -297 -342 -536 44 -308 353 -497 647 -395
242 83 377 341 311 595 -42 161 -179 298 -340 340 -79 20 -206 19 -276 -4z
m265 -216 c22 -10 55 -34 74 -53 106 -107 101 -307 -10 -408 -57 -51 -101 -67
-183 -68 -173 -1 -284 120 -273 298 8 123 74 210 188 247 43 14 162 5 204 -16z"/>
<path d="M6096 1334 c-3 -9 -6 -42 -6 -74 0 -91 -2 -90 105 -90 107 0 105 -1
105 90 0 91 2 90 -105 90 -75 0 -94 -3 -99 -16z"/>
<path d="M416 1332 c-17 -28 -296 -907 -292 -918 5 -12 27 -14 113 -12 l108 3
23 73 24 72 164 0 c123 0 166 -3 169 -12 2 -7 12 -40 22 -73 l18 -60 108 -3
c87 -2 108 0 113 12 5 13 -265 864 -288 909 -8 15 -25 17 -143 17 -73 0 -136
-4 -139 -8z m188 -387 c26 -88 49 -168 52 -177 5 -16 -4 -18 -101 -18 -82 0
-106 3 -102 13 2 6 26 87 53 179 27 92 49 166 50 165 1 -1 22 -74 48 -162z"/>
<path d="M6665 1087 c-93 -31 -169 -99 -212 -192 -24 -52 -28 -72 -28 -150 1
-71 5 -100 22 -137 102 -225 390 -287 571 -124 41 37 92 125 92 157 0 24 -20
29 -109 29 -74 0 -79 -1 -115 -35 -117 -107 -298 1 -256 153 19 74 71 112 150
112 46 0 73 -11 111 -47 24 -22 32 -24 120 -21 109 3 115 10 79 83 -29 61 -95
123 -160 154 -66 30 -200 39 -265 18z"/>
<path d="M7423 1086 c-92 -30 -166 -98 -210 -191 -24 -52 -28 -73 -28 -150 0
-78 4 -98 28 -150 36 -76 110 -147 185 -176 76 -30 204 -32 282 -5 93 32 201
160 159 187 -28 18 -142 10 -184 -13 -105 -56 -205 -35 -251 54 l-14 28 242 2
243 3 0 85 c0 99 -26 168 -91 239 -61 68 -122 94 -229 98 -57 2 -105 -2 -132
-11z m218 -205 c22 -21 39 -44 39 -50 0 -8 -45 -11 -145 -11 l-146 0 16 30
c24 47 70 70 139 70 55 0 61 -3 97 -39z"/>
<path d="M2315 1062 c-71 -34 -127 -92 -164 -171 -22 -47 -26 -70 -26 -141 1
-70 5 -94 27 -140 34 -74 85 -130 148 -164 99 -54 243 -44 320 21 l30 25 0
-49 c0 -62 -26 -111 -70 -135 -68 -35 -172 -16 -206 39 -27 41 -32 43 -115 43
-88 0 -105 -11 -95 -62 30 -148 224 -247 411 -208 118 24 202 89 249 189 20
44 21 64 24 380 2 184 1 345 -3 358 -5 23 -8 24 -98 21 l-92 -3 -5 -29 c-5
-27 -6 -28 -20 -11 -8 10 -37 29 -65 41 -74 35 -170 33 -250 -4z m227 -164
c128 -38 145 -223 26 -284 -45 -23 -131 -20 -173 6 -57 35 -83 104 -65 170 14
52 46 88 95 105 50 18 67 18 117 3z"/>
<path d="M3180 1081 c-95 -31 -151 -84 -176 -167 -20 -67 -11 -74 91 -74 78 0
84 2 99 25 24 36 62 49 108 36 40 -13 58 -46 58 -111 l0 -37 -41 20 c-27 13
-69 22 -118 25 -69 3 -81 1 -131 -25 -46 -23 -60 -37 -82 -82 -48 -94 -31
-191 45 -258 72 -63 215 -68 292 -8 l34 25 3 -23 c3 -21 7 -22 93 -22 l90 0 3
235 c2 154 -1 249 -9 276 -14 54 -59 107 -117 141 -38 23 -59 27 -131 30 -47
1 -97 -1 -111 -6z m134 -435 c44 -18 54 -50 28 -85 -36 -48 -147 -46 -170 3
-32 70 54 119 142 82z"/>
<path d="M6096 1064 c-11 -28 -7 -614 4 -635 9 -16 22 -19 93 -19 51 0 88 5
95 12 9 9 12 94 12 319 0 169 -3 314 -6 323 -9 24 -189 24 -198 0z"/>
<path d="M1410 826 c0 -261 6 -304 53 -370 25 -35 109 -76 157 -76 55 0 108
19 145 51 l34 30 3 -28 3 -28 95 0 95 0 0 330 0 330 -95 0 -95 0 -5 -223 -5
-224 -28 -24 c-35 -30 -94 -32 -128 -5 -24 19 -24 22 -29 248 l-5 228 -97 3
-98 3 0 -245z"/>
</g>
</svg>
